Coordinates
version=1
nRows=49
nColumns=12
inDegrees=yes

Units are S.I. units (second, meters, Newtons, ...)
Angles are in degrees

endheader
time	SC_y	SC_z	SC_x	AC_y	AC_z	AC_x	GH_y	GH_z	GH_yy	EL_x	PS_y
       0.0              -43.61          9.976          21.89          36.75         -13.22          -12.5          136.8          16.63          49.33          134.5          50.37
  0.007494               -43.6          9.979          21.89          36.75         -13.22          -12.5          136.8          16.64          49.34          134.5          50.38
   0.01499               -43.6          9.982          21.89          36.75         -13.22          -12.5          136.8          16.65          49.34          134.5          50.38
   0.02248               -43.6          9.986          21.89          36.75         -13.22         -12.49          136.8          16.66          49.35          134.5          50.39
   0.02998              -43.59          9.989          21.89          36.75         -13.22         -12.49          136.8          16.66          49.35          134.5           50.4
   0.03747              -43.59          9.993          21.88          36.75         -13.22         -12.48          136.8          16.67          49.36          134.4          50.41
   0.04497              -43.58          9.997          21.88          36.75         -13.22         -12.48          136.8          16.68          49.37          134.4          50.42
   0.05246              -43.58           10.0          21.88          36.75         -13.22         -12.47          136.8          16.69          49.37          134.4          50.43
   0.05995              -43.57          10.01          21.87          36.75         -13.22         -12.47          136.8           16.7          49.38          134.4          50.44
   0.06745              -43.56          10.01          21.87          36.75         -13.21         -12.46          136.8          16.71          49.39          134.4          50.45
   0.07494              -43.56          10.02          21.87          36.75         -13.21         -12.45          136.8          16.73           49.4          134.4          50.46
   0.08244              -43.55          10.02          21.86          36.75         -13.21         -12.44          136.8          16.74          49.41          134.4          50.48
   0.08993              -43.54          10.03          21.86          36.75         -13.21         -12.44          136.8          16.75          49.42          134.4          50.49
   0.09743              -43.54          10.04          21.86          36.75         -13.21         -12.43          136.8          16.77          49.43          134.3          50.51
    0.1049              -43.53          10.04          21.85          36.75         -13.21         -12.42          136.8          16.79          49.44          134.3          50.52
    0.1124              -43.52          10.05          21.85          36.75         -13.21         -12.41          136.8           16.8          49.46          134.3          50.54
    0.1199              -43.51          10.06          21.84          36.75         -13.21          -12.4          136.8          16.82          49.47          134.3          50.56
    0.1274               -43.5          10.07          21.83          36.75          -13.2         -12.39          136.8          16.85          49.49          134.3          50.58
    0.1349              -43.48          10.08          21.83          36.75          -13.2         -12.37          136.7          16.87          49.51          134.2          50.61
    0.1424              -43.47          10.09          21.82          36.75          -13.2         -12.36          136.7          16.89          49.53          134.2          50.64
    0.1499              -43.45           10.1          21.81          36.75          -13.2         -12.34          136.7          16.92          49.55          134.2          50.66
    0.1574              -43.44          10.12           21.8          36.75          -13.2         -12.33          136.7          16.95          49.57          134.1           50.7
    0.1649              -43.42          10.13          21.79          36.75         -13.19         -12.31          136.7          16.99           49.6          134.1          50.73
    0.1724               -43.4          10.15          21.78          36.75         -13.19         -12.29          136.7          17.03          49.63          134.1          50.77
    0.1799              -43.38          10.17          21.77          36.75         -13.19         -12.26          136.7          17.07          49.66          134.0          50.81
    0.1874              -43.35          10.19          21.76          36.75         -13.18         -12.24          136.7          17.11          49.69          134.0          50.86
    0.1949              -43.32          10.21          21.74          36.76         -13.18         -12.21          136.7          17.17          49.73          133.9          50.91
    0.2023              -43.29          10.23          21.72          36.76         -13.17         -12.17          136.7          17.23          49.78          133.9          50.98
    0.2098              -43.26          10.26           21.7          36.76         -13.17         -12.14          136.6          17.29          49.83          133.8          51.04
    0.2173              -43.22           10.3          21.68          36.76         -13.16         -12.09          136.6          17.37          49.88          133.7          51.12
    0.2248              -43.17          10.34          21.66          36.76         -13.15         -12.05          136.6          17.46          49.95          133.6          51.21
    0.2323              -43.12          10.38          21.63          36.76         -13.15         -11.99          136.6          17.55          50.02          133.5          51.31
    0.2398              -43.06          10.43          21.59          36.76         -13.14         -11.93          136.5          17.67          50.11          133.4          51.43
    0.2473              -42.99          10.49          21.56          36.77         -13.13         -11.85          136.5           17.8          50.21          133.2          51.57
    0.2548              -42.91          10.56          21.51          36.77         -13.11         -11.76          136.5          17.96          50.33          133.1          51.73
    0.2623              -42.81          10.64          21.46          36.77          -13.1         -11.66          136.4          18.14          50.47          132.9          51.92
    0.2698              -42.69          10.73          21.39          36.78         -13.08         -11.54          136.4          18.36          50.63          132.6          52.14
    0.2773              -42.55          10.85          21.32          36.78         -13.06         -11.39          136.3          18.62          50.83          132.4          52.41
    0.2848              -42.39          10.99          21.23          36.79         -13.04         -11.22          136.2          18.94          51.07          132.0          52.73
    0.2923              -42.18          11.15          21.11          36.79          -13.0          -11.0          136.1          19.33          51.36          131.6          53.13
    0.2998              -41.93          11.36          20.98           36.8         -12.97         -10.73          136.0          19.81          51.72          131.1          53.62
    0.3073              -41.61          11.62           20.8          36.81         -12.92          -10.4          135.8           20.4          52.17          130.5          54.23
    0.3148              -41.21          11.95          20.59          36.83         -12.86         -9.982          135.7          21.15          52.74          129.7           55.0
    0.3223              -40.71          12.37          20.31          36.85         -12.78          -9.45          135.4          22.11          53.46          128.6          55.98
    0.3297              -40.06          12.91          19.95          36.87         -12.68         -8.768          135.1          23.33          54.38          127.3          57.23
    0.3372              -39.23          13.59           19.5           36.9         -12.56         -7.893          134.7           24.9          55.56          125.6          58.84
    0.3447              -38.17          14.47          18.92          36.93          -12.4         -6.776          134.2           26.9          57.07          123.5          60.89
    0.3522              -36.84          15.57          18.19          36.98         -12.19         -5.371          133.6          29.42          58.97          120.8          63.47
    0.3597              -35.21          16.91           17.3          37.04         -11.95         -3.658          132.8          32.49          61.28          117.5          66.62
